<?xml version="1.0" encoding="utf-8"?>
<!-- Generator: Adobe Illustrator 24.3.0, SVG Export Plug-In . SVG Version: 6.00 Build 0)  -->
<svg version="1.1" id="Livello_1" xmlns="http://www.w3.org/2000/svg" xmlns:xlink="http://www.w3.org/1999/xlink" x="0px" y="0px"
	 viewBox="0 0 595.3 149.5" style="enable-background:new 0 0 595.3 149.5;" xml:space="preserve">
<style type="text/css">
	.st0{stroke:#000000;stroke-width:1.3157;stroke-miterlimit:10;}
	.st1{fill:#FFFFFF;}
	.st2{fill:#FFFFFF;stroke:#FFFFFF;stroke-width:1.3157;stroke-miterlimit:10;}
</style>
<g>
	<path class="st1" d="M255.2,55.2c2.2-2.9,4.2-5.5,6.2-8.1c5.5-7.2,11.2-14.3,16.4-21.7c2.2-3.2,4.7-4.1,8.3-3.9
		c4.4,0.3,8.7,0.1,13.1,0c1.4,0,1.9,0.4,1.9,1.8C301,40.2,301,57,301,73.8c0,2.5-0.2,2.7-2.7,2.7c-3.2,0-6.5,0-9.7,0
		c-2.8,0-2.9,0-2.9-2.8c0-10.9,0.1-21.8,0.1-32.7c0-0.6,0.1-1.6,0.1-2.3c-0.4,0-0.7,0.5-1.7,1.5c-7.5,9.7-15,19.3-22.5,29
		c-1.1,1.5-2.4,2.1-4.3,2c-1.3,0-2.5,0-3.8,0c-2.4,0-3.8-0.7-5.2-2.5c-5.2-6.9-10.5-13.8-15.8-20.7c-2.1-2.7-4.8-6.2-7.3-9.2
		c0,1.9-0.1,4.3-0.1,5.8c-0.1,8.9,0,17.9,0,26.8c0,0.2,0,0.4,0,0.6c0.1,4.4,0.1,4.4-4.3,4.3c-3.1,0-6.2-0.1-9.3,0
		c-1.3,0-1.8-0.3-1.8-1.7c0.1-16.9,0.1-33.9,0-50.8c0-1.8,0.5-2.4,2.3-2.4c5.3,0.1,10.5,0.1,15.8,0c1.2,0,2,0.3,2.9,1.4
		c6.3,8.3,12.7,16.5,19.1,24.8C251.6,50,253.2,52.5,255.2,55.2z"/>
	<path class="st1" d="M414.5,21.7c0.6-0.1,1-0.1,1.4-0.1c19.7,0,39.5,0,59.2,0.1c5.3,0,10.3,1.2,14.3,5.1c2.4,2.4,4,5.2,4.2,8.6
		c0.3,6.2,0.5,12.5,0.5,18.7c0,2.7-0.3,5.4-0.5,8.1c-0.6,6.9-3.9,10.8-10.7,12.7c-3.8,1-7.8,1.4-11.7,1.5c-18.1,0.1-36.3,0-54.4,0.1
		c-1.6,0-2.5-0.4-2.5-2.2c0-16.9,0-33.7,0-50.6C414.4,23,414.5,22.3,414.5,21.7z M450.3,33.2C450.3,33.2,450.3,33.2,450.3,33.2
		c-4.9,0-9.9,0-14.8,0c-4.9,0-4.9,0-4.9,4.9c0,7.9,0,15.8,0,23.8c0,0.9,0,1.8,1.2,2c0.8,0.1,1.6,0.2,2.4,0.2
		c12.3-0.2,24.7-0.3,37-0.8c3.7-0.1,6.6-2.2,6.6-6.8c0.1-5.4,0.1-10.9-0.1-16.3c-0.1-2.7-2-7-9.5-7
		C462.2,33.1,456.2,33.2,450.3,33.2z"/>
	<path class="st1" d="M356.9,76.5c-6.6,0-13.2,0.1-19.8,0c-4.5-0.1-9.1-0.7-13.1-2.9c-3.4-1.9-6-4.5-6.4-8.7
		c-0.2-3.1-0.6-6.3-0.7-9.4c-0.1-6.3-0.2-12.7,0-19c0.1-3.2,0.7-6.3,2.7-9c2.3-3,5.3-4.3,8.8-5c10.9-2.4,21.9-1.1,32.8-1.4
		c5.1-0.1,10.3-0.2,15.4,0.1c4.4,0.2,8.9,0.6,13,2.8c3.8,2.1,6.8,5,7.3,9.6c0.3,2.2,0.6,4.4,0.6,6.5c0.1,6.9,0.2,13.8,0,20.7
		c-0.2,6.6-3.2,11.7-9.6,13.9c-3.3,1.2-7,1.6-10.6,1.7C370.6,76.6,363.8,76.4,356.9,76.5C356.9,76.4,356.9,76.5,356.9,76.5z
		 M374.1,63.5c1.6-0.1,3.2-0.6,4.6-1.3c2.6-1.3,2.6-4,2.8-6.4c0.3-3.7,0.2-7.5,0.1-11.2c-0.1-2.3-0.2-4.6-0.7-6.7
		c-0.3-1.2-1.4-2.7-2.5-3.2c-2-0.9-4.4-1.4-6.6-1.4c-10.2-0.1-20.4-0.1-30.6,0c-1.7,0-3.6,0.5-5.2,1.3c-2.5,1.2-2.8,3.9-2.8,6.2
		c0,6.1,0.3,12.1,0.5,18.2c0.1,2.3,1.9,4.2,4,4.6C340.2,63.8,368,64,374.1,63.5z"/>
	<path class="st1" d="M24.9,21.6c0.7,0,1.3-0.1,1.9-0.1c22.3,0,44.7,0,67,0c2.5,0,2.5,0,2.5,2.4c0,2.3-0.1,4.7,0,7
		c0.1,1.5-0.4,2.1-2,2.1c-16.8-0.1-33.6,0-50.4,0c-2.4,0-2.4,0-2.5,2.5c0,1.8,0,3.6,0,5.3c-0.1,1.5,0.4,2,2,1.9
		c15.4-0.2,30.8-0.4,46.2-0.6c2.8,0,2.8,0,2.8,2.8c0,2-0.1,3.9,0,5.9c0.1,1.5-0.5,2.1-1.9,2c-3.8-0.1-7.6-0.1-11.4-0.1
		c-11.9,0-23.9,0-35.8,0c-1.6,0-2,0.5-1.9,2c0.1,2.8,0,5.7,0,8.8c1.9,0.2,3.7,0.5,5.4,0.5c12.4,0,24.9,0,37.3,0
		c3.5,0,6.9,0.1,10.4,0c1.4,0,2,0.4,1.9,1.8c-0.1,2.9,0,5.8,0,8.8c0,1.4-0.5,1.7-1.8,1.7c-22.5,0-45-0.1-67.6-0.1
		c-1.5,0-2.3-0.4-2.3-2.1c0-17,0-34,0-51C24.8,22.8,24.8,22.3,24.9,21.6z"/>
	<path class="st1" d="M546.5,21.5c11.2,0,22.3,0,33.5,0c1.6,0,2.1,0.4,2,2.1c-0.1,2.4-0.1,4.8,0,7.2c0.1,1.8-0.5,2.3-2.3,2.3
		c-14.2,0-28.4,0-42.6,0c-2.7,0-5.5,0.1-8.2,0c-1.3,0-1.8,0.5-1.7,1.8c0.1,2.2,0,4.3,0,6.5c0.1,1.7,1.6,1.1,5.2,1
		c14.4,0,28.8,0,43.2-0.1c1.5,0,2,0.4,2,1.9c0,2.3,0,4.5,0.2,6.8c0.1,1.7-0.7,2-2.2,2c-14.3,0-28.5,0-42.8,0c-5.7,0-5.7,0-5.7,5.7
		c0,0.5,0,1,0,1.5c0,3.8,0.1,4,4,4c3.3,0,33.9-0.1,45.8,0c5,0,5,0,5,5c0,1.6,0,3.2,0,4.8c0,2.4-0.1,2.5-2.5,2.5
		c-16.2,0-32.4,0-48.5,0c-5.8,0-11.7,0-17.5,0c-1.7,0-2.3-0.5-2.3-2.3c0-16.9,0-33.7,0-50.6c0-1.4,0.2-2,1.9-2
		C524.1,21.6,535.3,21.6,546.5,21.5C546.5,21.6,546.5,21.5,546.5,21.5z"/>
	<path class="st1" d="M130.6,39.3c0,4.2,0,7.9,0,11.5c0,7.8,0,15.6,0,23.4c0,1.6-0.4,2.3-2.2,2.2c-3.9-0.1-7.7-0.1-11.6,0
		c-1.6,0-2.2-0.6-2.2-2.2c0-16.9,0-33.9,0-50.8c0-1.5,0.5-1.8,1.9-1.8c4.8,0,9.6,0.1,14.5-0.1c1.9,0,3,1.3,4.2,2.2
		c9.5,7.8,19,15.7,28.5,23.6c3.8,3.2,7.6,6.3,11.4,9.4c0.4,0.3,0.9,0.9,1.4,0.6c0.5-0.2,0.4-1,0.4-1.5c0-10.7,0-21.4,0-32.2
		c0-0.6,0-1.2,0-2c5.2,0,10.2,0,15.3,0c0,0.7,0.1,1.3,0.1,1.9c0,16.7,0,33.5,0,50.2c0,2.6,0,2.6-2.6,2.6c-3,0-5.8,0.1-9.1,0.1
		c-4.1-0.1-6.3-1.1-8.9-3.2c-9.2-7.7-18.5-15.5-27.7-23.2c-3.9-3.3-7.9-6.5-11.8-9.8C131.9,40,131.4,39.8,130.6,39.3z"/>
</g>
<g id="HkBj2F_2_">
	<g>
		<path class="st2" d="M299.3,102.8c0.3,0,0.5,0,0.7,0c9.7,0,19.4,0,29.1,0c1.5,0,3,0.2,4.3,1c2,1.2,2.9,3.1,2.9,5.3
			c0.1,4.5,0.1,9.1,0,13.6c-0.1,3.8-2.7,6.3-6.6,6.3c-8.6,0-17.2,0-25.8,0c-1.6,0-3.1,0-4.7,0C299.3,120.3,299.3,111.6,299.3,102.8z
			 M305.6,124.4c0.3,0,0.5,0,0.7,0c6.8,0,13.7,0,20.5,0c2.2,0,3.5-1.2,3.5-3.4c0-3.3,0-6.6,0-10c0-2.3-1.2-3.5-3.5-3.5
			c-6.8,0-13.6,0-20.4,0c-0.2,0-0.5,0-0.7,0C305.6,113.2,305.6,118.7,305.6,124.4z"/>
		<path class="st2" d="M401.9,102.8c3.9,0,7.7,0,11.6,0c1.3,0,2.5,0.2,3.6,0.7c2.1,1.1,3.1,2.8,3.4,5.1c0,0.3,0.1,0.7,0.1,1
			c0,4.2,0,8.3,0,12.5c0,3.4-1.6,5.7-4.5,6.5c-0.9,0.3-1.9,0.3-2.9,0.3c-7.3,0-14.7,0-22,0c-0.5,0-0.9,0-1.4,0
			c-0.7-0.1-1.3-0.1-2-0.3c-2.7-0.8-4.4-3-4.4-6c0-4.6-0.1-9.1,0-13.7c0.1-3.6,2.7-6.2,6.4-6.3c0.1,0,0.2,0,0.3,0
			C394.1,102.8,398,102.8,401.9,102.8C401.9,102.8,401.9,102.8,401.9,102.8z M401.9,107.5c-3,0-6,0-9,0c-2.2,0-3.4,1.2-3.4,3.4
			c0,3.4,0,6.8,0,10.2c0,2,1.3,3.3,3.3,3.3c6,0,12,0,18.1,0c2.1,0,3.3-1.2,3.3-3.3c0-3.4,0-6.8,0-10.2c0-2.2-1.2-3.4-3.4-3.4
			C407.9,107.5,404.9,107.5,401.9,107.5z"/>
		<path class="st2" d="M223,129.1c-2.3,0-4.5,0-6.8,0c-0.2,0-0.5-0.3-0.6-0.4c-1-1.4-2.1-2.9-3.1-4.3c-0.2-0.4-0.5-0.5-1-0.5
			c-6.5,0-13,0-19.4,0c-0.5,0-0.8,0.2-1,0.5c-1,1.5-2,2.9-3.1,4.3c-0.1,0.2-0.4,0.4-0.6,0.4c-2.2,0-4.4,0-6.8,0
			c0.2-0.3,0.3-0.5,0.4-0.6c5.9-8.4,11.8-16.8,17.6-25.2c0.2-0.3,0.5-0.5,0.9-0.5c1.5,0,3,0,4.5,0c0.3,0,0.6,0.2,0.7,0.3
			c6,8.5,12,17.1,18,25.6C222.9,128.8,223,128.9,223,129.1z M201.9,109.1c-2.5,3.4-4.8,6.8-7.3,10.2c4.9,0,9.7,0,14.5,0
			C206.7,115.8,204.4,112.5,201.9,109.1z"/>
		<path class="st2" d="M241.9,102.8c2.1,0,4.1,0,6.2,0c0,0.3,0,0.6,0,0.8c0,5.8,0,11.5,0,17.3c0,2.2,1.2,3.4,3.4,3.4
			c5.9,0,11.9,0,17.8,0c2.2,0,3.4-1.2,3.4-3.5c0-5.7,0-11.5,0-17.2c0-0.3,0-0.5,0-0.8c2.1,0,4.1,0,6.2,0c0,0.2,0,0.4,0,0.6
			c0,6.3,0,12.7,0,19c0,2.3-0.8,4.2-2.7,5.5c-1.1,0.8-2.4,1.1-3.7,1.1c-8.1,0-16.1,0-24.2,0c-3.8,0-6.4-2.6-6.5-6.4
			C241.9,116,241.9,109.5,241.9,102.8z"/>
		<path class="st2" d="M363,129c-2.1,0-4.1,0-6.1,0c0-8.7,0-17.5,0-26.2c2.1,0,4.1,0,6.1,0C363,111.5,363,120.2,363,129z"/>
	</g>
</g>
</svg>
