<?xml version="1.0" encoding="UTF-8" standalone="no"?>
<!-- Created with Inkscape (http://www.inkscape.org/) -->

<svg
   width="232mm"
   height="131mm"
   viewBox="0 0 232 131"
   version="1.1"
   id="svg1"
   xml:space="preserve"
   sodipodi:docname="logo-envmode.svg"
   inkscape:version="1.3.2 (091e20e, 2023-11-25, custom)"
   xmlns:inkscape="http://www.inkscape.org/namespaces/inkscape"
   xmlns:sodipodi="http://sodipodi.sourceforge.net/DTD/sodipodi-0.dtd"
   xmlns="http://www.w3.org/2000/svg"
   xmlns:svg="http://www.w3.org/2000/svg"><sodipodi:namedview
     id="namedview1"
     pagecolor="#ffffff"
     bordercolor="#000000"
     borderopacity="0.25"
     inkscape:showpageshadow="2"
     inkscape:pageopacity="0.0"
     inkscape:pagecheckerboard="0"
     inkscape:deskcolor="#d1d1d1"
     inkscape:document-units="mm"
     inkscape:zoom="0.6828388"
     inkscape:cx="374.90547"
     inkscape:cy="268.73107"
     inkscape:window-width="1920"
     inkscape:window-height="991"
     inkscape:window-x="-9"
     inkscape:window-y="-9"
     inkscape:window-maximized="1"
     inkscape:current-layer="svg1" /><defs
     id="defs1" /><path
     style="fill:#ffffff;fill-opacity:1"
     d="m 116.16596,131.10953 c -0.16298,-0.0588 -1.28693,-0.73728 -2.49767,-1.50784 -2.50595,-1.59489 -5.49707,-3.46562 -10.20233,-6.38084 -1.79282,-1.11076 -5.469459,-3.40796 -8.170326,-5.10487 -7.963255,-5.0032 -11.777131,-7.3156 -16.27911,-9.87023 -2.256013,-1.28017 -2.520831,-1.46673 -2.711221,-1.91001 -0.173938,-0.40497 -0.329464,-5.75521 -0.177933,-6.12104 0.147992,-0.357287 0.465014,-0.570257 3.716598,-2.496777 4.440561,-2.63098 9.653576,-5.76908 12.899467,-7.76514 1.576557,-0.96951 3.062457,-1.8374 3.302,-1.92864 0.517092,-0.19697 1.25826,-0.2158 1.666822,-0.0423 0.160991,0.0683 0.515636,0.29857 0.7881,0.51162 0.843319,0.65941 1.136796,0.62634 2.601923,-0.29323 0.7905,-0.49614 11.53036,-7.15768 14.34401,-8.89706 0.86218,-0.53299 1.18098,-0.62914 1.6131,-0.48653 0.24699,0.0815 7.02438,4.24546 14.72098,9.0444 2.0693,1.29024 2.26131,1.32877 3.15187,0.63242 0.27247,-0.21305 0.62711,-0.44328 0.7881,-0.51162 0.40801,-0.17321 1.14974,-0.15461 1.66524,0.0418 0.23867,0.0909 1.95317,1.09776 3.81,2.23744 3.81072,2.33893 7.87058,4.78259 12.35072,7.43397 3.29143,1.9479 3.61067,2.16183 3.75841,2.518497 0.0717,0.173 0.0778,0.96903 0.0233,3.02835 -0.0789,2.98319 -0.10851,3.18159 -0.53365,3.57293 -0.1115,0.10264 -1.45944,0.90593 -2.99542,1.78509 -4.76894,2.72965 -7.24954,4.23799 -16.04301,9.75501 -3.09669,1.94286 -6.98289,4.36967 -8.636,5.39291 -4.12741,2.55477 -6.76151,4.20297 -9.35567,5.85398 -2.23873,1.4248 -2.5971,1.61464 -3.04801,1.61464 -0.1397,0 -0.38735,-0.0481 -0.55033,-0.10682 z M 65.827706,99.951903 c -0.141861,-0.0642 -2.218311,-1.3275 -4.614334,-2.80727 -2.396022,-1.47977 -12.128805,-7.473 -21.628405,-13.31829 -9.4996,-5.84529 -21.2344,-13.07286 -26.077333,-16.06127 -4.8429332,-2.98841 -9.5673335,-5.90147 -10.4986665,-6.47348 -1.818578,-1.11695 -2.26717197,-1.49089 -2.40378097,-2.00377 -0.05095,-0.19129 -0.09285,-1.63438 -0.100951,-3.47675 l -0.01384,-3.14972 0.217974,-0.37195 c 0.127835,-0.21813 0.40350697,-0.49645 0.66662197,-0.67303 0.246756,-0.16559 5.8016979,-3.50013 12.3443135,-7.41009 6.542617,-3.90995 15.357084,-9.19059 19.587704,-11.73475 8.433862,-5.07185 7.959516,-4.82956 8.707833,-4.4478 0.191835,0.0979 5.876742,3.44486 12.633127,7.43775 6.756385,3.9929 12.74648,7.49492 13.311322,7.78226 1.71326,0.87156 2.089179,1.34175 2.098397,2.62457 0.0026,0.35556 -0.02284,1.43996 -0.05643,2.40977 -0.06803,1.9643 -0.137349,2.24829 -0.666453,2.7306 -0.387404,0.35313 -0.487364,0.41192 -5.746836,3.3795 -2.537883,1.43197 -4.663827,2.64979 -4.72432,2.70627 -0.08778,0.082 2.023138,1.37363 10.456333,6.39818 16.950976,10.0995 23.341043,13.93666 23.495925,14.10904 0.377628,0.4203 0.405396,0.65218 0.405396,3.38534 0,2.46565 -0.0092,2.61964 -0.177105,2.9665 -0.172926,0.35722 -0.485411,0.55083 -13.240673,8.20383 -9.897838,5.93857 -13.142849,7.846857 -13.390728,7.874647 -0.179938,0.0202 -0.443229,-0.0159 -0.585089,-0.0801 z m 100.475134,0.0247 c -0.1086,-0.0435 -6.03374,-3.581 -13.16698,-7.86105 -11.90944,-7.14584 -12.98499,-7.80942 -13.15871,-8.11852 -0.18455,-0.32835 -0.18918,-0.40124 -0.18918,-2.97363 0,-2.77219 0.0271,-3.00073 0.40539,-3.42164 0.15302,-0.17026 7.72367,-4.71685 24.1296,-14.49116 7.8133,-4.65501 9.90683,-5.9374 9.82133,-6.01608 -0.0598,-0.055 -2.05176,-1.19683 -4.42666,-2.53741 -5.5694,-3.1438 -5.7912,-3.27481 -6.11287,-3.61074 -0.49747,-0.51953 -0.54138,-0.73898 -0.62296,-3.11344 -0.0409,-1.19063 -0.0512,-2.31718 -0.0229,-2.50345 0.13078,-0.85994 0.59882,-1.32613 2.09913,-2.09087 0.56039,-0.28564 6.5434,-3.78433 13.29556,-7.77485 6.75217,-3.99053 12.44379,-7.34048 12.64804,-7.44433 0.2559,-0.13011 0.47968,-0.17946 0.71967,-0.15871 0.2859,0.0247 3.24508,1.76756 16.51963,9.72941 8.89423,5.33461 17.82236,10.68367 19.84029,11.8868 2.01793,1.20313 3.7855,2.30404 3.92793,2.44647 0.48437,0.48437 0.48911,0.52315 0.48506,3.96553 -0.004,3.53341 -0.0186,3.63881 -0.56285,4.11741 -0.36863,0.32414 -5.38824,3.42964 -36.00943,22.27803 -12.08405,7.43814 -23.43785,14.43044 -25.23067,15.53842 -1.79282,1.10799 -3.38227,2.06608 -3.53211,2.1291 -0.31138,0.130957 -0.57247,0.138497 -0.85635,0.0247 z m -50.56226,-55.22165 c -0.34812,-0.19957 -1.47115,-0.87216 -2.49562,-1.49463 -1.02447,-0.62248 -6.22512,-3.76799 -11.557,-6.99003 -15.857457,-9.58259 -16.205596,-9.79431 -16.412399,-9.98086 -0.109306,-0.0986 -0.27535,-0.32872 -0.368986,-0.51135 -0.161062,-0.31416 -0.170247,-0.49327 -0.170247,-3.319864 0,-2.876997 0.0067,-3.001628 0.180623,-3.360909 0.09934,-0.205214 0.249763,-0.435688 0.334268,-0.512163 C 85.64269,18.23087 116.04416,0.27828139 116.40673,0.18728039 c 0.1126,-0.02826 0.32762,0.01034 0.49066,0.08809 0.74547,0.35548904 30.2757,17.81571061 30.81941,18.22246561 0.14657,0.109655 0.34866,0.369092 0.44908,0.576527 0.17648,0.364564 0.18257,0.477508 0.18257,3.38337 0,2.817537 -0.0104,3.026497 -0.16567,3.329317 -0.0911,0.1777 -0.2551,0.40348 -0.36441,0.50172 -0.1093,0.0983 -1.76084,1.12346 -3.67007,2.27824 -1.90923,1.15479 -8.46243,5.11656 -14.56267,8.80394 -6.10023,3.68739 -11.34494,6.86011 -11.6549,7.0505 -0.76841,0.47198 -1.22069,0.69636 -1.40361,0.69636 -0.0845,0 -0.43842,-0.16328 -0.78654,-0.36286 z"
     id="path1" /></svg>
